<?xml version="1.0" encoding="UTF-8"?>
<svg id="Layer_2" data-name="Layer 2" xmlns="http://www.w3.org/2000/svg" viewBox="0 0 303.49 498.14">
  <defs>
    <style>
      .cls-1 {
        fill: #fff;
      }

      .cls-2 {
        fill-rule: evenodd;
      }
    </style>
  </defs>
  <g id="Layer_1-2" data-name="Layer 1">
    <path class="cls-1" d="m54.47,467.31c106.07,18.7,285.42,117.98,242.51-180C254.08-10.68,29.92,132.92,29.92,132.92c0,0-81.52,315.69,24.55,334.39Z"/>
    <g>
      <g>
        <path class="cls-1" d="m234.65,232.33c-3.3-1.18-6.47-2.53-9.37-4.53-8.35-6.21-13.79-15.56-18.93-24.42-7.24-12.88-12.4-26.61-15.97-40.93-1.53-6.15-2.05-13.29-5.54-18.74-7.89-11.42-31.04-9.94-43.33-7.94-8.23,1.46-9.93,10.67-11.8,17.48-1.56,5.66-2.58,11.39-3.43,17.19-2.03,1.34-4.33,2.42-6.52,3.37-23.86,7.32-28.06,20.88-37.17,41.84-15.39,30.46-57.17,42.38-63.48,78.43-4.07,23.8,7.5,46.19,19.42,65.97,11.1,21.61,26.6,31.98,51.28,26.88,23.15-5.19,45.4-13.88,68.14-20.59,11.01-2.71,22.01-9.75,33.6-7.3,23.87,5.36,48.4,7.88,72.87,7.19,34.35,1.39,34.35-31.58,30.82-57.11-2.47-39.73-22.51-65.25-60.58-76.8h0Z"/>
        <path class="cls-2" d="m301.76,293.04c-.2,1.2-.42,2.28-.97,3.38-.71,1.43-1.69,2.75-2.87,3.85,3.58,7.99,5.03,16.83,5.42,25.53.28,7.37-.02,14.88-1.46,22.12-1.11,5.62-3.28,11.01-7.18,15.28-3.22,3.53-7.39,6.01-11.87,7.58-7.9,2.78-16.55,2.78-24.86,1.99.18.79.34,1.57.5,2.32.51,2.39,1.05,23.95,2.13,28.86.46,2.08.68,4.9,1.92,6.65,1.18,1.66,1.85,3.52,1.43,5.57-.31,1.54-1.27,3.45-2.39,4.57-.53.52-.64.75-.82.85-.33.2-.9,0-4.72.54-45.27,6.47-157.69,10.34-217.49-2.52-2.41,2.88-7.6,3-9.71-.55-1.12-1.89-1.2-4.67-1.27-7.04-.01-.53-.03-1.03-.05-1.51-.18-3.35-1.27-30.77-1.6-37.71-.05-1.08-.1-2.17-.16-3.25-.28-5.77-.57-11.54-.52-17.32.03-3.42.18-6.85.51-10.26.14-1.37.15-3.47.86-4.88-1.92-5.56-4.3-10.91-7.13-16.06-4.64-1.2-9.14-2.89-13.4-5.07-1.94-.99-3.97-1.83-4.83-3.96-.76-1.89-1.26-3.81-1.17-5.88.22-5.23,1.15-10.53,1.89-15.7.77-5.36,1.66-10.7,2.69-16.02,3.06-15.87,6.71-31.99,13.08-46.89,6.24-14.61,15.7-27.1,29.12-35.78,15.23-9.86,33.62-15.33,51.47-17.73.35-.05.71-.1,1.06-.16,1.65-.26,3.27-.51,4.88.06.12.04.23.09.35.13.48.18.97.37,1.45.36.92,0,1.94-.31,2.88-.42,2.54-.3,5.09-.43,7.64-.6,2.06-.14,4.3-.16,6.25-.93,4.17-1.66,6.37-15.98,7.04-18.29.48-1.65.98-4.07,2.51-5.02.81-.5,2.12-.38,2.76.36,1.19,1.37.76,3.73.41,5.71-.1.53-.19,1.03-.24,1.48-.31,2.63-1.38,21.97-15.51,22.91-12.96.87-12.86,1.98-12.75,3.06,0,.1.02.19.02.29,1.69,3.01,4.25,7,6.42,9.59,2.89,3.44,6.08,6.68,9.51,9.58,11.3,9.54,26.1,15.05,40.91,14.81,7.77-.12,14.97-2.02,20.17-8.12,4.86-5.69,7.59-15.79,9.64-22.89-4.88-6.08-7-14.24-5.15-20.31.55-1.81,1.6-3.42,3.6-2.21,1.69,1.02,1.55,5.89,1.98,7.62.9,3.61,2.89,5.6,5.4,8.44,1.77-.14,3.43.56,4.67,1.85,11.37,2.78,22.26,6.35,31.4,13.93,7.23,5.99,12.99,13.57,18.27,21.27,6.18,9.01,12.07,18.22,18.07,27.35,6.76,10.29,13.5,20.58,20.29,30.85,1.66,2.51,3.33,5.03,5,7.54.83,1.26,1.67,2.51,2.51,3.76.76,1.13,1.81,2.32,2.2,3.65.28.96.08,1.98-.09,2.82-.04.2-.08.39-.11.57Zm-64.81-3.21c2.87,1.9,5.28,4.78,7.22,7.81-8.09-.84-16.17-1.81-24.23-2.92,1.06-.67,2.12-1.33,3.21-1.96.35-.2.7-.4,1.07-.61,3.84-2.21,8.67-5,12.72-2.32Zm-137.06,19.78c.58,1.3,1.15,3.56,2.63,4.14,1.16.45,2.73.26,4.13.08.51-.06.99-.12,1.43-.15,9.36-.55,18.88.4,27.99,2.62,8.14,1.99,15.89,5.18,23.17,9.31,7.15,4.04,13.88,8.78,20.93,12.98,14.46,8.62,30.13,14.98,46.49,18.98,8.44,2.06,17.09,3.6,25.71,4.77,6.14.83,12.43,1.36,18.62.86,5.33-.43,11.07-1.79,15.14-5.46,5.38-4.85,6.42-12.43,6.9-19.29.53-8.22.45-16.58-1.42-24.64-.89-3.86-2.25-7.44-4-10.99-1-2.03-2.83-4.56-3.23-7.03-7.17-.38-14.07.98-20.69,3.47.82.05,1.65.1,2.47.15,2.02.13,4.04.31,6.05.56,1.6.2,3.62.22,5.01,1.11,2.24,1.43,2.18,4.66.39,6.41-1.91,1.86-5.53,1.44-8.31,1.12-.52-.06-1.01-.12-1.46-.16-14.48-1.24-28.94-2.64-43.34-4.57-14.71-1.96-29.31-4.46-43.91-7.07-14.62-2.61-29.36-5.04-44.23-5.52-7.34-.24-14.72.02-22,1.08-6.77.99-13.12,3.06-19.65,4.92,1.72,4.1,3.37,8.24,5.19,12.3Zm-7.92.01c.96,3.11,1.69,6.65,3.73,9.26,2.02,2.59,5.08,3.5,8.24,3.73,2.24.16,4.49.17,6.75.17,1.58,0,3.17,0,4.75.07,7.84.29,15.57,1.56,23.06,3.9,6.98,2.18,13.46,5.57,19.71,9.34,5.77,3.48,11.38,7.22,17.15,10.69-1.54.7-3.06,1.47-4.58,2.13-3.2,1.39-6.43,2.73-9.67,4.04-6.39,2.58-12.8,5.1-19.28,7.44-13.07,4.72-26.35,8.84-39.79,12.35-6.41,1.68-12.91,3.63-19.57,3.91-5.91.25-11.38-1.42-16.14-4.93-9.88-7.28-17.74-17.8-24.09-28.16-3.77-6.16-7.07-12.63-9.79-19.33-1.38-3.38-2.63-6.82-3.75-10.3-.53-1.63-1.03-3.27-1.5-4.92-.21-.73-.41-1.45-.61-2.18,10.1-3.08,20.32-5.87,30.79-7.41,5.59-.82,11.25-1.24,16.89-1.18,2.8.03,5.6.18,8.39.47,1.5.16,3,.36,4.48.6.62.1,1.25.25,1.88.36.97,3.32,1.94,6.63,2.96,9.94Z"/>
      </g>
      <g>
        <g>
          <path class="cls-1" d="m223.49,90.74c-.82-7.18.24-22.19.31-23.1.45-5.76-2.25-28.53-7.36-26.43-8.57-6.78-19.97-8.28-30.64-8.99-22.16-1.49-45.73,1.93-62.84,16.84-8.46,7.74-16.7,19.01-16.04,30.74-7.69,11.12-18.53,26.37-8.95,39.36,3.26,4.15,8.43,5.7,12.52,8.84,8.23,6.64,13.39,16.16,21.69,22.76,22,19.77,59.37,23.9,80.99,1.41,16.72-16.29,14.01-40.66,11.07-61.42-1.98-13.96.83,14.01-.76,0Z"/>
          <path class="cls-2" d="m174.26.04c-6.05-.22-12.14.52-18.06,1.72-11.76,2.37-23.81,6.25-34.46,11.8-4.47,2.33-8.6,5.22-12.32,8.54-3.36-1.61-8.67-1.74-9.75,1.95-.31,1.06-.16,2.02.29,2.84-.13.07-.26.15-.38.24-.85.57-1.3.98-1.83,1.5l-.41.42c-1.31,1.32-1.44,3.76,0,5.06l.2.18.12.11c.24.21.51.38.78.52-5.04,7.72-8.46,16.52-9.87,25.72-.83,5.4-1.07,10.8-.45,16.23.3,2.65.76,5.49,1.69,8,.45,1.23,1.09,2.42,1.66,3.6.62,1.28,1.64,2.22,2.48,3.37.09.12.24.18.38.18-.25.52-.49,1.06-.7,1.58-1.24,3.03-2.2,6.3-2.75,9.53-1.04,6.09-.41,12.95,4.23,17.51,1.85,1.81,4.71,3.27,7.52,3.66-.9.93-1.63,2.03-2.21,3.3-1.09,2.37.72,5.57,3.6,4.68.55-.17,1.09-.38,1.62-.62.83,1.64,2.6,2.76,4.49,2.47,1.1-.17,1.9-.6,2.45-1.2,1.37,3.03,3.19,5.78,5.49,8.21,2.44,2.57,5.13,4.89,7.56,7.48,2.36,2.51,3.76,5.78,6.55,7.84.87.64,2.19-.04,2.43-.99.94-3.69-1.6-6.77-4.01-9.31l-.3-.32c-2.59-2.69-5.57-4.93-8.33-7.44-2.86-2.6-5.16-5.37-7.23-8.63-.18-.28-.36-.57-.54-.86l-.81-1.32c-.04-.19-.09-.38-.14-.57-.04-.75-.29-1.46-.77-2.11-.6-.81-1.39-1.42-2.28-1.7-.3-.32-.61-.62-.94-.9.41-.44.76-.97,1.07-1.58.56-1.13-.09-2.93-1.6-2.78-.45.04-.9.02-1.34,0-.48-.02-.97-.04-1.46.02-.12.01-.24.03-.35.05-.81.11-1.62.21-2.44.1-1.68-.24-3.19-1.15-4.28-2.43-2.74-3.19-3.03-7.78-2.45-11.75.25-1.78.69-3.52,1.15-5.26l.71-2.66c.41-1.49.89-3.03,1.85-4.24,2.99-3.8,8.12-.82,11.19,1.47l.28.21s.05.03.08.03c.16.27.34.53.52.78,1.01,1.36,2.22,2.57,3.48,3.71l.26.23c.17.16.35.31.52.46,1.47,1.29,3.46.34,3.65-1.51.36-3.49.26-7.02.49-10.53.22-3.51.63-7.01,1.23-10.48.6-3.46,1.37-6.89,2.32-10.27.47-1.69.99-3.37,1.55-5.03.42-1.28.74-3.36,1.85-4.26,1.01-.81,2.9-.95,4.13-1.21,1.72-.37,3.46-.69,5.19-1.06,3.23-.69,6.46-1.45,9.64-2.35,3.15-.89,6.28-1.94,9.3-3.2-.87,1.46-1.73,2.92-2.59,4.38-1.17,2.01.36,4.15,2.49,4.33,2.18.18,4.38.02,6.51-.5.45-.11.87-.24,1.25-.38,2.33-.17,4.72-.7,6.91-1.24l1.02-.26c4.17-1.05,8.17-2.48,12.12-4.17.44-.19.88-.38,1.33-.58,1.64-.49,3.25-1.07,4.83-1.72,5.86.89,11.84.54,17.61-.87,2.49-.61,5.19-1.38,7.76-2.44,1.28,2.18,3.24,3.95,5.43,5.24.24,1.89.37,3.81.46,5.71.28,6.05.6,12.1.93,18.15l.11,1.96c.62,11.75,1.01,23.52,1.1,35.29.08,10.72-.57,21.31-6.38,30.63-4.89,7.87-12.53,14.13-21.39,16.94-5.44,1.72-11.21,2.28-16.9,1.73-2.77-.27-5.52-.9-8.18-1.75l-.38-.12c-2.66-.82-5.2-1.23-7.98-1.57-1.84-.22-2.28,2.16-1.36,3.28,1.95,2.36,4.04,3.94,6.94,5.01,2.62.96,5.4,1.58,8.16,1.97,5.69.82,11.44.73,17.06-.56,10.44-2.38,19.67-8.66,26.1-17.16,7.06-9.34,9.33-20.51,9.48-32.02.16-12.31-.45-24.69-1.26-36.98l-.17-2.54c-.36-5.32-.75-10.66-1.36-15.96,1,.1,2.05-.21,2.9-1.07,1.66-1.66,2.05-4.21,2.25-6.51l.05-.64c.16-2.12-.16-4.29-.74-6.33-.8-2.79-2.14-5.14-4.04-7.11,2.54-2.74,3.91-6.61,4.21-10.26.22-2.63.42-6.1-2.49-7.32-.57-.24-1.17-.33-1.77-.32.15-.94.26-1.89.32-2.85.09-1.53-1.47-3.2-3.04-3.04-.48.05-.95.1-1.43.15.29-.46.57-.91.87-1.36,1.24-1.89-.43-4-2.39-4.16-5.19-.43-10.32-1.49-15.27-3.1-4.97-1.62-10.16-3.25-14.88-5.5-.33-.16-.7-.04-.93.19-3.97-2.65-9.74-3.05-14.29-3.23l-.47-.02Zm-67.15,100.2c-1.76-.82-4.15-1.93-5.98-1.33-.84.27-1.09,1.16-.71,1.81h-.03l.08.13c.35.53.8.89,1.29,1.23l.23.16c-.62.44-1.09,1.07-1.29,1.87-.33,1.28.21,2.85,1.42,3.49.49.25,1.01.39,1.56.42.78.03,1.42-.32,2.01-.77l.17-.14c.26-.2.47-.48.63-.77,1.42,1.83,2.61,3.99,5.11,4.06,1.2.03,2.55-.92,2.79-2.13.03-.12.05-.24.07-.35.23-1.14.06-2.46-.87-3.28-1.87-1.62-3.8-3.16-6.06-4.2-.14-.06-.29-.13-.44-.2Z"/>
        </g>
        <path class="cls-2" d="m209.74,69.74c-2.16-.38-4.52-.39-6.65.21-1.67.47-4.31,1.54-5.03,3.25-.15.35-.14.88.28,1.06.57.19,1.56.29,1.46.07.49-.05.98-.15,1.47-.24.78-.15,1.56-.3,2.34-.29,1.66.03,3.21.32,4.75.94,1.39.56,2.7,1.35,3.81,2.36,1.35,1.22,2.09,3.06,3.68,3.98,1.95,1.13,4.21-.33,4.31-2.47.12-2.57-2.17-4.68-4.1-6.13l-.21-.15c-1.76-1.31-3.96-2.2-6.12-2.58Zm-55.83,4.85c3.44-3.05,9.7-5.99,14.34-4.49,2.67.86,3.83,5.16.85,6.53-3.45,1.58-7.43.94-10.94,2.57-1.47.69-2.86,1.55-3.89,2.81-.81.99-1.63,2.3-2.8,2.87-.31.15-.72.15-.97-.12-2.56-2.9,1.17-8.18,3.41-10.16Zm65.33,18.97c1.41-5.67-4.87-11.23-10.24-10.79-2.72.22-5.14,1.79-6.63,4.05-1.04,1.58-2.02,4.73-.38,6.24.23.21.55.2.78,0,.95-.82,1.5-2.16,2.42-3.09,1.02-1.02,2.36-1.75,3.81-1.85,1.32-.09,2.55.49,3.41,1.49,1.05,1.21,1.01,2.49,1.4,3.94.72,2.64,4.75,2.72,5.43,0Zm-55.11-8.93c2.8-.5,5.67.2,7.99,1.84l.18.13c2.23,1.63,4.73,4.5,3.45,7.32-.51,1.13-2.06,1.31-3.03.8-1.63-.85-1.92-2.95-3.37-4.12-1.19-.95-2.79-1.53-4.33-1.39-3.6.33-5.82,3.88-6.94,6.94-.14.39-.72.54-.94.12-2.64-4.93,2.03-10.76,7-11.64Zm34.76,26.23c3.08-4.32-1.28-8.38-4.15-10.13-.75-.54-.15-2.32,1.45-2.05,14.58,2.5,7.02,27.61-11.59,13.84-2.22-1.79.47-5.72,2.86-4.19.12.09.25.19.38.29,2.68,2.07,7.59,5.87,11.05,2.24Zm-21.11,9.59c2.12-3.49,6.65,5.06,7.13,6.54.43,1.3.71,2.64.85,3.99,1.65.37,3.36.37,5.04.05,2.51-.48,4.04-1.83,6.22-2.99,1.51-.8,3.4.14,4.19,1.46.92,1.56.33,3.18-.88,4.35-2.3,2.21-6.81,2.71-9.81,2.13-1.72-.34-3.29-.98-4.68-1.92,0,.18-.02.35-.03.52l-.03.3c-.23,2.45-.9,5.53-2.8,7.12-3.12,2.61-6.97-2.41-3.94-5.02l.09-.08c1.88-1.52,2.29-5.61,2.19-7.85-.07-1.47-.33-2.95-.8-4.35l-.1-.28c-.14-.4-1.66-4.14-2.21-3.66l-.03.03c-.23.27-.59-.04-.42-.33Z"/>
      </g>
    </g>
  </g>
</svg>